<svg id="color" enable-background="new 0 0 24 24" height="512" viewBox="0 0 24 24" width="512" xmlns="http://www.w3.org/2000/svg"><path d="m24 8.5v9.5h-24v-9.5c0-1.38 1.12-2.5 2.5-2.5h1.5c0 4.41 3.59 8 8 8s8-3.59 8-8h1.5c1.38 0 2.5 1.12 2.5 2.5z" fill="#eceff1"/><path d="m12 0c-3.309 0-6 2.692-6 6s2.691 6 6 6 6-2.692 6-6-2.691-6-6-6z" fill="#2196f3"/><path d="m15.232 4.931-3.25 3.5c-.196.211-.463.319-.732.319-.23 0-.463-.08-.65-.241l-1.75-1.5c-.42-.359-.469-.99-.11-1.41.361-.418.992-.468 1.41-.108l1.02.875 2.597-2.796c.376-.404 1.008-.428 1.413-.052.405.375.428 1.008.052 1.413z" fill="#fff"/><path d="m21.5 24h-9.5v-6h12v3.5c0 1.381-1.119 2.5-2.5 2.5z" fill="#42a5f5"/><path d="m12 24h-9.5c-1.381 0-2.5-1.119-2.5-2.5v-3.5h12z" fill="#2196f3"/><path d="m4 6h-1.5c-1.38 0-2.5 1.12-2.5 2.5v9.5h12v-4c-4.41 0-8-3.59-8-8z" fill="#cdd0d2"/><path d="m12 0c-3.309 0-6 2.692-6 6s2.691 6 6 6v-3.588l-.018.019c-.196.211-.463.319-.732.319-.23 0-.463-.08-.65-.241l-1.75-1.5c-.42-.359-.469-.99-.11-1.41.199-.23.48-.349.762-.349.23 0 .461.079.649.24l1.02.875.829-.893z" fill="#1d83d4"/><path d="m9.502 5.25c-.282 0-.563.119-.761.349-.36.42-.311 1.051.109 1.41l1.75 1.5c.188.161.42.241.65.241.269 0 .536-.108.732-.319l.018-.019v-2.94l-.829.893-1.02-.875c-.188-.161-.419-.24-.649-.24z" fill="#dedede"/><path d="m12 18h-12v3.5c0 1.381 1.119 2.5 2.5 2.5h9.5z" fill="#1d83d4"/></svg>